<svg width="40" height="40" viewBox="0 0 40 40" fill="none" xmlns="http://www.w3.org/2000/svg">
<rect width="40" height="40" rx="20" fill="#333333"/>
<path d="M16.6712 20.0514C16.6712 18.2089 18.164 16.7148 20.006 16.7148C21.848 16.7148 23.3416 18.2089 23.3416 20.0514C23.3416 21.8939 21.848 23.3879 20.006 23.3879C18.164 23.3879 16.6712 21.8939 16.6712 20.0514ZM14.868 20.0514C14.868 22.8899 17.1683 25.1908 20.006 25.1908C22.8437 25.1908 25.144 22.8899 25.144 20.0514C25.144 17.2128 22.8437 14.9119 20.006 14.9119C17.1683 14.9119 14.868 17.2128 14.868 20.0514ZM24.1466 14.7081C24.1465 14.9457 24.2169 15.1779 24.3487 15.3755C24.4806 15.5731 24.6681 15.7271 24.8874 15.8181C25.1068 15.9091 25.3482 15.933 25.5811 15.8867C25.8141 15.8405 26.0281 15.7262 26.1961 15.5582C26.3641 15.3903 26.4785 15.1764 26.5249 14.9434C26.5713 14.7104 26.5477 14.4689 26.4569 14.2494C26.3661 14.0299 26.2122 13.8423 26.0148 13.7102C25.8174 13.5782 25.5853 13.5077 25.3478 13.5076H25.3474C25.029 13.5077 24.7238 13.6342 24.4987 13.8593C24.2735 14.0844 24.1469 14.3897 24.1466 14.7081V14.7081ZM15.9636 28.1984C14.988 28.1539 14.4578 27.9914 14.1054 27.8541C13.6383 27.6721 13.3049 27.4555 12.9545 27.1054C12.604 26.7553 12.3871 26.4222 12.206 25.9549C12.0687 25.6026 11.9062 25.0721 11.8618 24.0962C11.8133 23.0412 11.8036 22.7243 11.8036 20.0514C11.8036 17.3786 11.8141 17.0626 11.8618 16.0067C11.9063 15.0308 12.07 14.5013 12.206 14.148C12.3879 13.6807 12.6045 13.3473 12.9545 12.9967C13.3045 12.6462 13.6375 12.4292 14.1054 12.248C14.4576 12.1106 14.988 11.9481 15.9636 11.9037C17.0183 11.8552 17.3351 11.8455 20.006 11.8455C22.6769 11.8455 22.994 11.856 24.0496 11.9037C25.0252 11.9482 25.5545 12.1119 25.9078 12.248C26.3749 12.4292 26.7083 12.6466 27.0587 12.9967C27.4092 13.3468 27.6253 13.6807 27.8072 14.148C27.9445 14.5003 28.107 15.0308 28.1514 16.0067C28.1999 17.0626 28.2096 17.3786 28.2096 20.0514C28.2096 22.7243 28.1999 23.0403 28.1514 24.0962C28.1069 25.0721 27.9436 25.6025 27.8072 25.9549C27.6253 26.4222 27.4087 26.7556 27.0587 27.1054C26.7087 27.4551 26.3749 27.6721 25.9078 27.8541C25.5556 27.9915 25.0252 28.154 24.0496 28.1984C22.9949 28.2469 22.6781 28.2566 20.006 28.2566C17.3339 28.2566 17.018 28.2469 15.9636 28.1984V28.1984ZM15.8807 10.1031C14.8155 10.1516 14.0877 10.3206 13.452 10.568C12.7937 10.8235 12.2364 11.1663 11.6795 11.7225C11.1226 12.2786 10.7808 12.837 10.5254 13.4955C10.278 14.1317 10.1091 14.8594 10.0606 15.9249C10.0113 16.9921 10 17.3333 10 20.0514C10 22.7695 10.0113 23.1106 10.0606 24.1778C10.1091 25.2434 10.278 25.971 10.5254 26.6073C10.7808 27.2654 11.1227 27.8244 11.6795 28.3803C12.2363 28.9362 12.7937 29.2785 13.452 29.5348C14.0889 29.7822 14.8155 29.9511 15.8807 29.9996C16.9482 30.0482 17.2887 30.0603 20.006 30.0603C22.7233 30.0603 23.0644 30.049 24.1313 29.9996C25.1966 29.9511 25.9239 29.7822 26.56 29.5348C27.2179 29.2785 27.7756 28.9365 28.3325 28.3803C28.8894 27.8241 29.2305 27.2654 29.4866 26.6073C29.734 25.971 29.9037 25.2433 29.9514 24.1778C29.9999 23.1098 30.0112 22.7695 30.0112 20.0514C30.0112 17.3333 29.9999 16.9921 29.9514 15.9249C29.9029 14.8593 29.734 14.1313 29.4866 13.4955C29.2305 12.8374 28.8885 12.2795 28.3325 11.7225C27.7765 11.1654 27.2179 10.8235 26.5608 10.568C25.9239 10.3206 25.1965 10.1508 24.1321 10.1031C23.0652 10.0546 22.7241 10.0425 20.0068 10.0425C17.2895 10.0425 16.9482 10.0538 15.8807 10.1031Z" fill="white"/>
</svg>
