<svg width="40" height="40" viewBox="0 0 40 40" fill="none" xmlns="http://www.w3.org/2000/svg">
<rect width="40" height="40" rx="20" fill="#333333"/>
<path d="M26.2758 14.2524C26.1431 14.1838 26.014 14.1086 25.8888 14.0271C25.5248 13.7865 25.1911 13.503 24.8948 13.1826C24.1535 12.3344 23.8766 11.4739 23.7746 10.8715H23.7787C23.6936 10.3714 23.7288 10.0479 23.7341 10.0479H20.3577V23.1038C20.3577 23.2791 20.3577 23.4523 20.3503 23.6235C20.3503 23.6448 20.3483 23.6645 20.347 23.6874C20.347 23.6968 20.347 23.7067 20.345 23.7165C20.345 23.7189 20.345 23.7214 20.345 23.7239C20.3094 24.1923 20.1592 24.6448 19.9077 25.0416C19.6562 25.4384 19.311 25.7673 18.9025 25.9994C18.4768 26.2416 17.9953 26.3686 17.5055 26.368C15.9324 26.368 14.6574 25.0852 14.6574 23.5011C14.6574 21.9169 15.9324 20.6341 17.5055 20.6341C17.8033 20.6339 18.0993 20.6807 18.3824 20.773L18.3865 17.3351C17.527 17.2241 16.6538 17.2924 15.822 17.5358C14.9902 17.7791 14.2178 18.1922 13.5537 18.7489C12.9717 19.2546 12.4825 19.8579 12.1079 20.5318C11.9654 20.7775 11.4277 21.7649 11.3625 23.3675C11.3216 24.2772 11.5948 25.2196 11.725 25.6091V25.6173C11.8069 25.8466 12.1243 26.6293 12.6416 27.2891C13.0587 27.8183 13.5515 28.2833 14.1041 28.6689V28.6607L14.1123 28.6689C15.7469 29.7796 17.5592 29.7067 17.5592 29.7067C17.8729 29.694 18.9238 29.7067 20.1173 29.1411C21.441 28.5141 22.1946 27.5799 22.1946 27.5799C22.676 27.0217 23.0588 26.3855 23.3266 25.6988C23.6321 24.8956 23.7341 23.9323 23.7341 23.5473V16.6209C23.7751 16.6454 24.3206 17.0063 24.3206 17.0063C24.3206 17.0063 25.1065 17.51 26.3328 17.8381C27.2125 18.0715 28.3978 18.1207 28.3978 18.1207V14.7688C27.9825 14.8139 27.1392 14.6828 26.2758 14.2524Z" fill="white"/>
</svg>
