<svg width="40" height="40" viewBox="0 0 40 40" fill="none" xmlns="http://www.w3.org/2000/svg">
<rect width="40" height="40" rx="20" fill="#333333"/>
<path d="M10 29.2595L11.435 23.924C10.2777 21.8455 9.91003 19.4202 10.3994 17.0929C10.8888 14.7657 12.2024 12.6927 14.0992 11.2543C15.996 9.81594 18.3487 9.1087 20.7256 9.26236C23.1026 9.41602 25.3443 10.4203 27.0394 12.0908C28.7345 13.7614 29.7694 15.9862 29.9541 18.357C30.1387 20.7279 29.4608 23.0856 28.0447 24.9977C26.6286 26.9098 24.5694 28.248 22.2448 28.7666C19.9202 29.2853 17.4863 28.9496 15.3896 27.8213L10 29.2595ZM15.6494 25.8247L15.9827 26.0221C17.5014 26.9207 19.2752 27.2926 21.0277 27.0798C22.7802 26.8669 24.4129 26.0813 25.6715 24.8453C26.9301 23.6093 27.7437 21.9924 27.9857 20.2466C28.2277 18.5007 27.8844 16.724 27.0093 15.1933C26.1342 13.6625 24.7765 12.4638 23.1478 11.7838C21.519 11.1039 19.7108 10.9809 18.0047 11.4341C16.2986 11.8873 14.7907 12.8912 13.7158 14.2893C12.6409 15.6874 12.0594 17.4013 12.062 19.1638C12.0606 20.6251 12.4654 22.0583 13.2315 23.3036L13.4405 23.6476L12.6383 26.6256L15.6494 25.8247Z" fill="white"/>
<path fill-rule="evenodd" clip-rule="evenodd" d="M23.7394 20.5339C23.544 20.3765 23.3152 20.2658 23.0704 20.2101C22.8257 20.1544 22.5714 20.1552 22.327 20.2124C21.9598 20.3647 21.7225 20.94 21.4853 21.2276C21.4352 21.2965 21.3617 21.3449 21.2785 21.3636C21.1953 21.3823 21.1081 21.37 21.0333 21.3291C19.6889 20.8034 18.5621 19.8394 17.8357 18.5937C17.7738 18.5159 17.7445 18.4172 17.754 18.3184C17.7634 18.2195 17.811 18.1281 17.8866 18.0635C18.1512 17.802 18.3455 17.478 18.4515 17.1216C18.4751 16.7285 18.3849 16.337 18.1917 15.9936C18.0423 15.5123 17.758 15.0837 17.3725 14.7584C17.1736 14.6692 16.9531 14.6392 16.7376 14.6722C16.5221 14.7053 16.3207 14.7998 16.1579 14.9446C15.8751 15.1881 15.6506 15.4919 15.5011 15.8335C15.3515 16.1752 15.2805 16.546 15.2935 16.9186C15.2944 17.1278 15.3209 17.3362 15.3726 17.539C15.5038 18.0262 15.7055 18.4918 15.9714 18.9208C16.1633 19.2495 16.3726 19.5676 16.5985 19.874C17.3327 20.8802 18.2556 21.7345 19.3159 22.3894C19.848 22.7223 20.4167 22.9929 21.0107 23.196C21.6278 23.4752 22.3091 23.5824 22.9824 23.5062C23.3659 23.4482 23.7294 23.297 24.0407 23.0659C24.352 22.8348 24.6016 22.5308 24.7676 22.1808C24.8651 21.9693 24.8947 21.7329 24.8523 21.504C24.7506 21.0358 24.1235 20.7595 23.7394 20.5339Z" fill="white"/>
</svg>
