<svg width="26" height="30" viewBox="0 0 26 30" fill="none" xmlns="http://www.w3.org/2000/svg">
<path d="M16.3274 15C16.3274 14.2636 16.9244 13.6667 17.6608 13.6667H17.6727C18.4091 13.6667 19.0061 14.2636 19.0061 15C19.0061 15.7364 18.4091 16.3333 17.6727 16.3333H17.6608C16.9244 16.3333 16.3274 15.7364 16.3274 15Z" fill="#666666"/>
<path d="M8.32612 13.6667C7.58974 13.6667 6.99279 14.2636 6.99279 15C6.99279 15.7364 7.58974 16.3333 8.32612 16.3333H8.3381C9.07448 16.3333 9.67143 15.7364 9.67143 15C9.67143 14.2636 9.07448 13.6667 8.3381 13.6667H8.32612Z" fill="#666666"/>
<path fill-rule="evenodd" clip-rule="evenodd" d="M6.00011 8.74929V7.93334C6.00011 4.47734 8.74819 1.0455 12.3187 0.711176C16.4871 0.307831 20.0001 3.59174 20.0001 7.68001V8.74927C22.0735 8.96984 23.5577 9.6335 24.5022 10.7563C25.6732 12.1485 25.7828 13.9783 25.5941 15.6833L25.5925 15.6974L24.5935 23.6889C24.4461 25.0572 24.1009 26.5559 22.8797 27.6716C21.6648 28.7815 19.7827 29.3333 17.0002 29.3333H9.00021C6.21774 29.3333 4.33558 28.7815 3.12072 27.6716C1.89946 26.5559 1.55426 25.0571 1.40685 23.6888L0.407927 15.6974L0.406272 15.6833C0.2176 13.9783 0.327227 12.1485 1.49826 10.7563C2.44264 9.63354 3.92678 8.96988 6.00011 8.74929ZM12.51 2.70201C15.4875 2.41315 18.0001 4.75554 18.0001 7.68001V8.66667H8.00011V7.93334C8.00011 5.38994 10.0778 2.92902 12.5064 2.70235L12.51 2.70201ZM3.39248 23.4493L2.39338 15.4565C2.22334 13.9117 2.40078 12.7904 3.02882 12.0437C3.64827 11.3072 4.93759 10.6667 7.66687 10.6667H18.3335C21.0628 10.6667 22.3521 11.3072 22.9716 12.0437C23.5996 12.7903 23.7771 13.9116 23.6071 15.4563L22.6079 23.4493L22.6059 23.4668C22.4728 24.7094 22.1968 25.5865 21.5307 26.195C20.8556 26.8118 19.5777 27.3333 17.0002 27.3333H9.00021C6.42267 27.3333 5.14483 26.8118 4.46969 26.195C3.8036 25.5865 3.52765 24.7094 3.39451 23.4668L3.39248 23.4493Z" fill="#666666"/>
</svg>
