<svg width="21" height="30" viewBox="0 0 21 30" fill="none" xmlns="http://www.w3.org/2000/svg">
<path fill-rule="evenodd" clip-rule="evenodd" d="M9.99992 0.666672C6.16616 0.666672 3.07992 3.76919 3.07992 7.58667C3.07992 11.3245 6.02604 14.3679 9.73965 14.4928C9.78106 14.4942 9.82252 14.493 9.86378 14.4892C9.95337 14.4811 10.0494 14.4819 10.1137 14.4884C10.158 14.4928 10.2024 14.4943 10.2468 14.4928C13.9612 14.3679 16.9044 11.3247 16.9199 7.59084L16.9199 7.58667C16.9199 3.76772 13.8189 0.666672 9.99992 0.666672ZM5.07992 7.58667C5.07992 4.87082 7.27367 2.66667 9.99992 2.66667C12.7136 2.66667 14.9188 4.87119 14.9199 7.58463C14.9078 10.2308 12.8411 12.3746 10.2359 12.4917C10.0783 12.4803 9.91124 12.4808 9.7531 12.4918C7.14535 12.376 5.07992 10.2307 5.07992 7.58667Z" fill="#666666"/>
<path fill-rule="evenodd" clip-rule="evenodd" d="M17.4485 17.5818C15.4224 16.2286 12.8007 15.5833 10.2298 15.5833C7.65855 15.5833 5.03177 16.2287 2.99386 17.5799L2.99018 17.5823C1.16972 18.801 0.126465 20.5033 0.126465 22.3317C0.126465 24.1604 1.17008 25.8597 2.99156 27.0719C5.02368 28.4312 7.64819 29.08 10.2198 29.08C12.7919 29.08 15.4169 28.4309 17.4492 27.0711C19.2697 25.8525 20.3131 24.1501 20.3131 22.3217C20.3131 20.4931 19.2697 18.7939 17.4485 17.5818ZM2.12646 22.3317C2.12646 21.3239 2.69604 20.1867 4.10091 19.2456C5.74282 18.1576 7.96189 17.5833 10.2298 17.5833C12.4989 17.5833 14.7105 18.1581 16.3377 19.2449L16.3392 19.2459C17.7438 20.1804 18.3131 21.3141 18.3131 22.3217C18.3131 23.3299 17.7431 24.4677 16.3368 25.409C14.7025 26.5025 12.4876 27.08 10.2198 27.08C7.95191 27.08 5.73694 26.5024 4.10256 25.4089L4.10037 25.4074C2.69581 24.473 2.12646 23.3393 2.12646 22.3317Z" fill="#666666"/>
</svg>
