<svg width="40" height="40" viewBox="0 0 40 40" fill="none" xmlns="http://www.w3.org/2000/svg">
<path fill-rule="evenodd" clip-rule="evenodd" d="M16.2791 0C7.28839 0 0 7.28839 0 16.2791C0 25.2698 7.28839 32.5581 16.2791 32.5581C20.2721 32.5581 23.9293 31.1205 26.7613 28.7347L37.618 39.5913C38.1629 40.1362 39.0464 40.1362 39.5913 39.5913C40.1362 39.0464 40.1362 38.1629 39.5913 37.618L28.7347 26.7613C31.1205 23.9293 32.5581 20.2721 32.5581 16.2791C32.5581 7.28839 25.2698 0 16.2791 0ZM2.7907 16.2791C2.7907 8.82965 8.82965 2.7907 16.2791 2.7907C23.7285 2.7907 29.7674 8.82965 29.7674 16.2791C29.7674 23.7285 23.7285 29.7674 16.2791 29.7674C8.82965 29.7674 2.7907 23.7285 2.7907 16.2791Z" fill="#333333"/>
</svg>
