<svg width="444" height="60" viewBox="0 0 444 60" fill="none" xmlns="http://www.w3.org/2000/svg">
<path d="M2.49666 51.5233C2.86616 51.5233 3.0773 51.3456 2.97173 51.1501C2.86615 50.9546 2.86615 50.4748 3.28844 50.7591C3.71073 51.0434 4.46733 52.2696 4.53771 51.9853C4.6081 51.701 4.90722 50.919 4.9776 51.2211C5.04798 51.5233 5.55823 52.1097 6.01571 52.0209C7.03451 51.9793 8.05389 52.0871 9.0421 52.3407H9.79869C10.1587 52.3618 10.5141 52.4336 10.8544 52.554C11.2943 52.6428 11.9277 52.554 12.1037 52.8561C12.526 53.3892 12.7547 52.6428 13.1946 52.8561L13.5817 53.016C14.3406 52.8445 15.1277 52.8445 15.8867 53.016H16.4673C17.2415 53.016 18.1388 52.6428 18.7899 52.8383L19.7048 53.1049C20.9034 52.7883 22.1287 52.5861 23.3646 52.5007L24.5259 52.6073C25.6645 52.8378 26.845 52.7266 27.9218 52.2874C28.4455 52.1004 29.0169 52.1004 29.5406 52.2874C29.7094 52.3747 29.8963 52.4203 30.086 52.4203C30.2757 52.4203 30.4627 52.3747 30.6315 52.2874C31.1769 52.1097 31.9159 51.4166 32.6021 52.2874C32.7336 52.3308 32.8754 52.3308 33.0068 52.2874C33.3412 51.7187 33.7106 52.394 34.045 52.2874C34.3982 52.0582 34.7838 51.8844 35.1887 51.772H35.5581C36.4086 51.9146 37.2766 51.9146 38.1271 51.772C39.4373 51.5778 40.7272 51.2626 41.9804 50.8302L42.3147 51.079C42.5414 51.2088 42.801 51.268 43.0609 51.249C43.3208 51.23 43.5693 51.1338 43.7751 50.9724C44.378 50.7192 45.0109 50.546 45.6578 50.457C46.271 50.2239 46.9205 50.1035 47.5757 50.1016C48.2795 50.2082 48.7722 49.5862 49.4232 49.9061C49.4232 49.9061 49.564 50.0483 49.5816 50.0305C50.2854 49.7995 50.7781 49.0886 51.7282 49.4441L53.998 49.1953L54.7018 48.8754C55.8764 48.4252 57.0898 48.0861 58.3264 47.8624L59.4349 47.7203C59.8924 47.7203 60.4202 47.7203 60.3499 47.1516C60.5023 47.0315 60.6853 46.9575 60.8777 46.9384L62.039 47.6136C62.7474 47.0125 63.5206 46.4939 64.344 46.0676C65.0767 45.7507 65.7779 45.3639 66.4378 44.9125C67.4574 44.7609 68.4864 44.6837 69.517 44.6815C70.9734 43.944 72.368 43.0882 73.6871 42.1224H74.8836H75.5346C76.3967 41.6782 76.4671 40.6297 75.7105 39.7767L75.341 38.977C74.8827 38.0996 74.5001 37.184 74.1973 36.2403C73.4129 34.236 73.0706 32.0831 73.1944 29.9316L73.4407 28.5987C73.5463 27.1238 73.7574 25.3289 73.8982 24.6003L73.7223 23.8895C73.6777 23.1422 73.823 22.3959 74.1445 21.7214L74.3909 21.0283C74.778 20.2819 75.2354 19.4467 75.4114 19.1446C75.7299 18.5833 75.9838 17.9871 76.168 17.3675C76.168 17.0476 77.2941 16.479 77.3997 16.3013V16.1413L77.8923 14.9862C79.0913 13.7295 80.3602 12.5428 81.6929 11.432L82.08 10.5968C82.3615 9.97478 83.2589 10.0281 83.3997 9.29949C83.3997 8.9263 84.4202 8.65974 84.9656 8.32209C85.2143 8.1729 85.4396 7.98725 85.6343 7.77119C85.8454 7.5224 85.9158 7.18475 86.1621 6.98927C86.4084 6.79379 86.6196 7.54017 86.9891 6.98927C87.3586 6.43837 88.0624 6.98927 87.8688 6.34951L90.1034 4.82121L91.0536 4.25255C92.2149 3.77274 94.0448 2.97304 95.1181 2.47546L95.9802 1.90678C96.4895 1.61001 97.0514 1.41683 97.6342 1.33812C98.5261 1.09201 99.4018 0.789289 100.256 0.431783C100.607 0.219097 101.001 0.0880445 101.409 0.0480877C101.817 0.00813088 102.228 0.0602893 102.614 0.20078C102.719 0.20078 102.93 0.20078 103.089 0.20078H104.074C105.34 -0.0327953 106.635 -0.0627891 107.91 0.111919H108.878H109.863C110.813 0.260165 111.77 0.355095 112.731 0.396261C113.701 0.735372 114.647 1.13905 115.564 1.60467C117.335 2.48189 119.006 3.5547 120.543 4.80345L120.666 5.67423L120.772 6.38506C121.382 6.95937 121.909 7.61741 122.338 8.33988L122.619 8.89077C122.936 9.51275 123.218 10.1347 123.499 10.7567C123.587 10.9167 123.499 11.1654 123.693 11.2721C124.073 11.4402 124.443 11.63 124.801 11.8408C125.083 12.0895 124.397 12.4983 124.977 12.8359C125.276 13.0136 125.294 13.5112 125.382 13.8666C125.664 14.7068 125.847 15.5777 125.927 16.4612V17.4564C125.699 18.5404 125.048 20.744 124.502 22.3611L123.992 23.8184L123.64 24.8846C122.649 25.8353 121.72 26.8504 120.86 27.9234L119.998 28.3322L119.276 28.6698C118.659 29.4756 117.93 30.1877 117.112 30.7846C116.479 31.2111 114.666 32.7394 114.262 33.1125C113.857 33.4857 112.661 34.3032 112.854 34.5875C113.048 34.8719 111.394 35.1562 110.725 35.4939C110.056 35.8315 107.206 38.817 104.69 40.5053L102.279 41.8914C99.2882 43.6685 96.1738 45.1968 93.0946 46.814L92.5492 47.0983C91.863 47.3293 92.338 47.9869 93.5697 48.5733C96.198 49.546 98.8835 50.3531 101.611 50.9901L103.282 51.2922L104.25 51.4699C105.196 51.3426 106.155 51.3426 107.1 51.4699C107.593 51.5943 109.335 51.4699 109.775 51.4699L110.144 51.6121C110.602 51.8076 110.76 50.9724 111.271 51.4344C111.373 51.471 111.485 51.471 111.587 51.4344C111.869 51.3456 114.279 50.9901 114.561 50.9724C114.842 50.9546 115.018 50.7947 115.247 50.7947C116.373 50.8835 117.499 49.7462 118.661 50.7947C119.505 50.5343 120.362 50.3207 121.229 50.1549C122.338 49.9061 125.224 48.9643 124.995 48.3778L125.98 49.1242L126.561 49.5685C127.159 49.3552 128.32 48.9998 129.165 48.751C130.009 48.5022 132.878 47.5781 133.81 47.4537L134.408 47.0805C135.077 46.6718 135.693 47.2582 135.71 47.1872L136.238 45.6055L139.652 45.4456C139.977 45.4883 140.3 45.5476 140.619 45.6233C140.866 45.6233 141.71 44.6637 142.379 44.6992C143.801 44.4169 145.188 43.9759 146.514 43.3842L147.482 43.0998C148.141 42.7572 148.869 42.5689 149.611 42.5489C149.945 42.5489 150.332 42.1224 150.737 41.998H150.965C151.3 41.998 151.757 41.7137 152.004 41.1806L152.795 41.7848C152.795 41.7848 153.534 41.2694 153.992 41.145L154.361 41.0384C154.957 41.0355 155.55 40.9458 156.121 40.7719L156.367 40.3453C156.503 40.144 156.711 40.0039 156.948 39.9544C157.792 39.9544 159.059 39.9544 159.411 39.5279L160.15 38.5682C161.399 38.1951 162.666 37.7686 162.948 37.6264H163.229C163.828 37.6264 164.496 37.7508 164.549 36.9511C164.744 36.8703 164.954 36.8281 165.165 36.8267C166.027 36.8267 166.625 36.7023 166.924 35.8848C167.047 35.4406 167.47 36.0092 167.523 35.9737L168.103 35.5116L171.622 33.9833L172.731 33.7523L173.716 33.5568C174.613 33.1126 176.109 32.4195 177.042 32.0285L177.816 31.5487C178.133 31.3355 178.942 32.0818 178.907 31.1222C178.907 30.9623 179.751 30.749 180.226 30.5713L180.754 30.3581C181.605 30.135 182.435 29.8377 183.235 29.4695C183.974 29.1141 186.895 27.9235 187.968 27.3548C189.652 26.78 191.367 26.3052 193.106 25.9331C193.847 25.5478 194.611 25.2095 195.393 24.9202C195.869 24.8135 197.311 24.0494 197.734 23.9605C198.463 23.9954 199.185 24.1268 199.88 24.3515C200.109 24.3515 200.391 24.3515 199.669 24.0494L199.863 23.3385C199.986 22.912 200.215 22.8054 200.637 22.9298C201.059 23.0542 201.341 23.2852 201.376 23.2497L202.801 21.8991C203.966 22.076 205.142 22.1769 206.32 22.2012C206.109 22.2012 206.003 21.8103 206.496 21.6148C207.541 21.2475 208.612 20.9565 209.698 20.744L210.156 20.4241L210.666 20.0509C211.813 19.8968 212.925 19.5483 213.956 19.0202H216.138C216.388 18.7999 216.684 18.6405 217.005 18.5542C217.325 18.4679 217.661 18.4571 217.986 18.5226C218.408 18.7181 219.499 18.5226 219.323 17.9184L220.396 17.7762C220.854 17.7762 221.241 17.4919 221.681 17.7762C221.874 17.7762 223.106 17.1365 224.408 16.4967L225.481 16.5856C226.056 16.7502 226.645 16.8573 227.241 16.9055C227.779 16.7167 228.288 16.4536 228.754 16.1235C229.248 15.8402 229.766 15.6023 230.302 15.4127L230.672 15.2883C231.229 15.391 231.761 15.6023 232.238 15.9103V15.2172C232.238 15.2172 232.889 15.0395 233.258 15.0217L234.385 14.9329C235.284 14.8114 236.195 14.8114 237.094 14.9329C237.267 15.112 237.462 15.2674 237.675 15.3949C237.723 15.3439 237.757 15.2806 237.772 15.2117C237.788 15.1429 237.784 15.0711 237.763 15.004C237.763 14.844 237.657 14.2576 237.763 14.2221C238.276 14.3762 238.763 14.61 239.206 14.9151L239.346 13.991C239.592 13.9071 239.858 13.9071 240.103 13.991C240.508 14.4175 240.684 13.991 240.965 13.9022C241.247 13.8133 241.458 14.2043 241.722 14.2398H242.003L243.341 13.6889C244.374 13.2887 245.458 13.0375 246.56 12.9425L247.247 12.5516C247.562 12.3392 247.932 12.2258 248.311 12.2258C248.69 12.2258 249.061 12.3392 249.376 12.5516C249.478 12.5882 249.59 12.5882 249.692 12.5516L250.66 11.4853C252.015 11.8585 252.912 12.2139 252.684 12.2495C252.455 12.285 251.857 12.5338 252.349 12.6404L252.49 12.8181C252.93 13.2979 253.088 12.7293 253.352 12.7115C253.616 12.6937 253.88 12.3561 254.091 12.2139L254.689 11.8585C255.798 11.5564 256.449 11.6097 256.027 11.9651V12.1606V12.3028C256.136 12.4172 256.273 12.5017 256.424 12.5483C256.575 12.5949 256.735 12.6022 256.889 12.5693L256.977 12.4272L257.54 11.3431C258.684 11.3431 259.986 11.1654 260.443 11.0943H260.654L261.464 11.3787C262.179 11.2133 262.884 11.0057 263.575 10.7567C263.927 10.6146 265.106 10.9877 265.335 10.9344C265.563 10.8811 266.513 10.9344 266.672 10.8278C266.83 10.7212 267.481 10.4724 267.728 10.5968C268.216 10.8145 268.742 10.9294 269.276 10.9344C270.254 10.6584 271.213 10.314 272.144 9.9037L272.813 10.0103L274.255 10.2414C275.629 9.82665 277.066 9.67005 278.496 9.77932L279.393 9.86818H279.886C280.559 9.70119 281.254 9.64713 281.945 9.70822C283.061 9.6481 284.166 9.45118 285.235 9.12177L285.763 9.47721L286.308 9.83263C286.78 9.77965 287.242 9.66001 287.681 9.47721C289.035 10.2236 290.601 9.47721 291.991 9.88594L292.466 10.0281C292.959 10.3124 293.505 10.4368 293.681 10.2947C294.395 10.0573 295.166 10.0573 295.88 10.2947C296.672 10.6145 300.437 11.2898 302.496 11.7697L304.255 12.2495C304.994 12.445 305.716 12.7826 306.49 12.9959L307.37 13.2446L309.516 15.0217C310.031 15.4344 310.518 15.8795 310.977 16.3546C310.977 16.4967 310.977 17.1009 310.977 17.3142C310.977 17.5274 312.173 17.7762 312.49 17.8473V18.6292C312.846 18.7705 313.228 18.8341 313.61 18.8157C313.992 18.7973 314.366 18.6974 314.707 18.5226C315.323 18.1672 317.452 18.9136 317.821 18.9313C318.581 18.8515 319.349 18.9056 320.091 19.0913L320.742 18.5937L320.848 18.5049C321.255 18.4757 321.66 18.4223 322.062 18.3449C322.824 18.3552 323.583 18.4325 324.332 18.5759C324.595 18.5759 325.229 18.9136 325.422 18.9313C325.616 18.9491 327.499 18.9313 329.153 18.8247L330.648 18.9136C331.076 19.0205 331.523 19.0205 331.95 18.9136C332.52 18.7117 333.14 18.7117 333.71 18.9136L334.238 19.2334H336.208H336.683C337.141 19.2334 337.845 19.2335 338.003 19.3579L338.443 19.891C338.822 19.5851 339.222 19.3061 339.639 19.0558C339.938 18.878 341.276 19.66 341.892 19.8021H343.018C343.552 19.7022 344.093 19.6428 344.636 19.6244C344.953 19.6244 346.396 19.8199 346.959 19.891H347.557L348.296 19.9798L350.496 20.3175C351.29 20.3316 352.085 20.2781 352.871 20.1575C353.364 20.1575 354.982 20.2819 355.792 20.1575C356.601 20.0331 359.751 20.9928 361.317 20.9928L362.636 21.4015C363.375 21.6503 363.745 20.7973 364.396 21.2416L364.853 21.5081C365.432 21.6471 366.034 21.6471 366.613 21.5081H366.894C367.457 21.4193 368.196 21.1172 368.214 22.0235C368.214 22.0235 368.865 22.2012 368.971 22.0235L369.587 21.4904C370.314 21.6375 371.027 21.8516 371.716 22.1301C372.138 22.3078 373.475 21.8636 373.721 21.9879C373.968 22.1123 375.076 22.4678 375.27 22.3256C375.463 22.1834 376.044 22.0057 375.938 22.3256C375.833 22.6455 377.258 22.3256 377.698 22.3256H378.138H379.475C380.761 22.3211 382.025 22.6647 383.135 23.3208L383.751 22.7166C384.454 22.0235 384.806 22.8943 385.352 22.8587C385.655 22.7923 385.968 22.7911 386.271 22.8555C386.574 22.9198 386.861 23.048 387.111 23.2319C387.419 23.1558 387.704 23.0031 387.938 22.7876C388.185 22.5744 389.698 23.0364 390.314 23.1253H390.93C391.528 23.1253 392.196 22.9654 392.689 23.5163C392.831 23.5693 392.987 23.5693 393.129 23.5163L393.78 22.4678C394.623 22.7899 395.441 23.176 396.226 23.6229C397.274 23.7021 398.327 23.7021 399.375 23.6229L399.78 23.925C400.466 24.4226 400.695 23.7117 401.135 23.925C401.575 24.1382 402.384 24.4226 402.56 24.2804C403.176 23.7828 403.598 24.4048 404.108 24.2804C404.625 24.2606 405.139 24.3705 405.604 24.6003L406.044 24.7602C407.11 24.6886 408.18 24.6886 409.246 24.7602C410.302 24.7602 413.363 25.1512 413.715 25.2578C414.067 25.3644 414.929 25.4 415.211 25.5244C415.77 25.5682 416.333 25.5323 416.883 25.4178C417.706 25.5405 418.493 25.8437 419.188 26.3063L419.839 25.4888C420.788 25.7962 421.758 26.0337 422.742 26.1997C423.85 26.3951 427.141 26.7861 427.58 26.9283C428.12 27.0252 428.67 27.055 429.217 27.0171C429.498 27.0171 430.765 27.1948 431.416 27.3192L431.856 27.6036C432.472 28.0123 432.877 28.4743 433.774 27.8701L434.108 27.6391C434.948 27.7747 435.754 28.0702 436.484 28.5099L436.783 28.9186L437.363 29.7183L439.774 29.5406C440.161 29.5406 441.358 29.5406 441.393 29.6828C441.52 29.9144 441.703 30.1103 441.924 30.253C442.145 30.3957 442.398 30.4807 442.66 30.5002C443.275 30.5002 444.314 31.7264 443.909 31.5487C443.431 31.3318 442.918 31.2053 442.396 31.1755C442.308 31.2644 442.044 31.8331 442.29 32.0285H442.554C443.469 32.0285 443.328 32.5972 443.381 33.0948C443.434 33.5924 442.712 33.8412 443.381 34.3743L443.715 34.6764C443.728 35.4071 443.687 36.1377 443.592 36.8622C443.592 37.4487 441.674 37.5553 441.34 37.5908C441.006 37.6264 439.58 37.5908 439.035 37.5908C438.49 37.5908 436.29 37.2176 435.727 37.2887C435.164 37.3598 433.176 36.8089 432.63 36.8445C431.905 36.7728 431.174 36.7728 430.449 36.8445C430.044 37.0222 428.355 36.258 427.246 36.1692C426.138 36.0803 422.355 35.796 421.246 35.6894C420.138 35.5827 416.971 34.8897 416.566 34.7475H416.232L413.803 34.9963C411.182 34.6231 408.331 34.1966 407.434 34.0366H406.625C405.869 34.0531 405.117 33.9266 404.408 33.6635L403.95 33.4324L401.645 33.7168C401.152 33.7168 399.41 33.3436 398.918 33.4147C398.425 33.4858 396.578 32.9171 395.856 32.846C394.593 32.8179 393.33 32.8714 392.073 33.0059L391.862 32.8104C391.405 32.3839 391.018 32.8105 390.613 32.7038C390.186 32.5851 389.751 32.5019 389.311 32.455C388.765 32.455 388.202 32.455 387.657 32.455C387.111 32.455 386.689 32.0108 386.443 32.1174C385.475 32.5617 384.683 31.9219 383.716 32.1174C383.166 32.1884 382.611 32.1884 382.062 32.1174H381.586C381.043 32.008 380.508 31.8595 379.985 31.6731H379.545C379.286 31.7554 379.011 31.7757 378.742 31.7325C378.474 31.6894 378.219 31.5839 377.997 31.4243L377.874 31.3177C377.014 31.571 376.129 31.726 375.235 31.7797C374.152 31.6389 373.092 31.352 372.085 30.9267L369.534 30.8201C368.302 30.8201 364.537 30.4291 363.886 30.3403C363.235 30.2514 361.141 29.896 360.666 29.7894H360.226C359.487 29.7894 358.783 30.0915 357.974 29.7894C357.164 29.4873 356.443 30.0027 355.739 29.5228L355.035 29.043C354.051 29.1091 353.063 29.1091 352.079 29.043C351.393 29.043 348.56 28.9542 347.293 28.8653C346.026 28.7764 342.631 28.5099 342.279 28.5632C341.683 28.5666 341.091 28.4828 340.519 28.3144C340.22 28.2078 338.619 28.6521 337.616 28.7232C336.128 28.5472 334.653 28.2741 333.199 27.9057H328.607C324.068 27.9057 319.722 27.799 318.947 27.6746L318.367 28.2433C318.244 28.3855 317.733 28.3677 317.469 28.2433C317.205 28.1189 316.801 27.568 316.308 28.0123L315.763 28.5277C315.261 29.0862 314.99 29.8175 315.006 30.5713L314.584 31.0156C314.584 31.1044 314.725 31.371 314.76 31.5487L314.848 32.0108C314.529 31.894 314.181 31.894 313.862 32.0108V32.1174V32.3662C313.913 32.8871 313.795 33.4106 313.528 33.859C313.264 34.4099 311.769 35.7249 311.03 35.636V36.2758C311.004 36.5409 310.919 36.7967 310.782 37.0244C310.645 37.252 310.459 37.4456 310.238 37.5908L310.097 37.6975C310.082 38.1502 310.117 38.6033 310.203 39.0481L309.516 39.3324H309.34C309.2 39.5101 308.777 40.0255 308.39 40.452C307.639 40.9257 306.811 41.2625 305.944 41.4471L305.768 41.5537L305.575 41.6426C305.327 41.9316 305.104 42.2407 304.906 42.5667C304.695 42.9044 303.956 43.5441 303.428 43.1709L303.323 44.1128V44.5037C303.205 44.6567 303.056 44.7821 302.886 44.8711C302.716 44.9601 302.529 45.0106 302.337 45.0191C301.519 45.1168 300.716 45.3137 299.944 45.6055C299.047 45.9254 296.285 46.9917 295.686 47.1516C294.395 47.4071 293.091 47.591 291.78 47.7025C290.795 47.7914 287.311 48.5022 286.15 48.6444L285.094 48.4133L284.425 48.2534C283.704 48.2534 282.384 48.3956 281.522 48.3956H280.73C279.939 48.3956 279.129 48.3956 278.337 48.3956C278.197 48.3956 277.986 48.3956 277.898 48.3956C277.423 48.0935 277.176 47.4893 276.279 48.0046C275.98 48.1646 275.276 47.6492 274.607 47.6136C273.446 47.6136 272.496 46.6896 271.211 46.8317C271.211 46.8317 271.071 46.6185 271.018 46.5119C270.823 46.2661 270.668 45.9901 270.56 45.6944L270.42 45.0546C269.892 45.1968 269.575 45.0546 269.716 44.8769L269.575 44.6637C269.364 44.3438 269.1 44.0417 268.854 43.7218L268.291 42.4778V42.1402C268.15 41.7848 267.833 40.9851 267.552 40.3631L267.323 39.7944C267.066 39.2972 266.848 38.7802 266.672 38.2484C266.452 37.2701 266.294 36.2789 266.197 35.2806V34.7297C266.286 34.205 266.465 33.7 266.725 33.237C267.145 32.9082 267.592 32.6168 268.062 32.3662C268.565 32.0485 268.968 31.5923 269.223 31.0511L269.469 30.7312C269.751 30.3403 270.631 30.5002 270.648 29.7716V29.3984C271.046 29.5542 271.475 29.6091 271.898 29.5584C272.444 29.3456 272.974 29.0902 273.481 28.7942L273.886 28.6521L274.291 28.5099C274.818 28.5099 275.258 28.1722 275.258 27.9234C275.258 27.6746 275.54 26.9105 275.892 26.9105C276.244 26.9105 277.211 26.8217 277.088 26.6973C276.965 26.5729 276.807 26.2707 276.912 26.1819H277.018C277.174 26.1461 277.337 26.1461 277.493 26.1819C278.83 26.4662 279.252 25.5599 280.009 24.9735C280.766 24.387 280.59 24.4759 280.959 25.0801L281.382 25.7554C281.557 25.3466 281.839 25.0801 281.997 25.169C282.156 25.2578 282.754 25.1689 282.684 25.0446L282.578 24.9557L281.997 24.387L285.041 23.0187L286.079 22.5744C286.399 22.4001 286.754 22.3028 287.117 22.2901C287.909 22.615 288.773 22.7134 289.616 22.5744L290.109 22.4145C290.468 22.4987 290.841 22.4987 291.2 22.4145L291.305 22.3078C291.446 22.1834 291.552 21.9169 291.657 21.9169C292.753 21.8002 293.833 21.5618 294.877 21.206L295.862 20.9928C297.024 20.8684 298.642 20.6374 299.469 20.4952L300.12 20.2642C300.666 20.0509 300.912 19.8199 301.493 20.2642L301.88 20.5307C302.102 20.3941 302.351 20.3089 302.61 20.2812C302.869 20.2536 303.13 20.2842 303.376 20.3708C303.622 20.5663 304.22 19.9087 304.343 19.7133C304.466 19.5178 305.469 19.7133 305.997 19.7133L306.208 19.2334V19.1268C306.402 18.9847 306.085 18.8425 305.522 18.7714C304.674 18.6037 303.801 18.6037 302.953 18.7714L302.443 18.4338C301.975 18.1069 301.466 17.844 300.93 17.6518L300.455 17.5097C299.828 17.4806 299.201 17.571 298.607 17.7762C298.185 17.9717 295.563 17.2609 293.522 17.2609C291.481 17.2609 285.78 17.2609 285.358 17.0832C284.936 16.9055 283.722 17.6518 283.423 17.7762C283.123 17.9006 281.417 17.4741 280.572 17.4919L279.815 17.6518L278.988 17.8473C277.919 17.9402 276.856 18.0945 275.804 18.3094L275.1 18.0072L274.783 17.8651C274.537 17.5452 274.273 17.7052 274.203 18.2561L273.34 18.025L272.513 17.8118C271.396 17.993 270.267 18.0821 269.135 18.0783L268.308 18.6292L268.027 18.807C266.939 18.5831 265.827 18.5054 264.719 18.5759C263.628 18.5759 260.883 19.4289 260.83 19.3045C260.756 19.2058 260.649 19.1383 260.529 19.1153C260.408 19.0923 260.284 19.1154 260.179 19.1801C259.915 19.3578 258.983 19.6777 258.42 20.0332L258.261 19.9088C257.505 19.3579 256.818 19.7133 256.097 19.9088C255.573 19.7627 255.02 19.7627 254.496 19.9088C253.739 20.0687 251.1 20.4952 250.343 20.6551C249.18 20.8707 247.988 20.8707 246.824 20.6551L246.437 21.3304C246.279 21.6148 245.558 21.7392 245.065 21.8103C244.572 21.8813 243.956 21.8103 243.411 21.8103C243.194 21.8153 242.985 21.89 242.813 22.0235C242.579 22.2748 242.282 22.4583 241.954 22.5552C241.626 22.652 241.279 22.6587 240.948 22.5744L240.121 22.4322C238.759 22.8925 237.365 23.2489 235.951 23.4985C234.385 23.7828 229.018 25.0623 227.364 25.4178L225.851 25.7021C224.755 25.7669 223.695 26.1158 222.772 26.715C222.596 26.8214 222.395 26.8767 222.191 26.875C221.734 26.2885 221.258 26.7861 220.907 26.875C219.889 27.2988 218.816 27.574 217.722 27.6924H216.824C215.945 28.215 214.998 28.6099 214.009 28.8653C212.886 29.1575 211.791 29.55 210.737 30.0382C210.156 30.3047 208.15 30.8023 207.657 30.9623L201.446 33.0948L199.212 33.859C198.932 33.9098 198.663 34.0122 198.42 34.1611L197.839 34.712C197.108 34.9322 196.397 35.2116 195.71 35.5472C195.376 35.7249 193.951 35.9915 193.599 36.1514L193.335 36.3824C193.134 36.6045 192.885 36.7763 192.607 36.8843C192.329 36.9923 192.03 37.0334 191.734 37.0044C191.379 37.0434 191.037 37.1585 190.731 37.342C190.315 37.6231 189.866 37.85 189.393 38.0173L187.44 38.3728C185.962 39.277 184.422 40.0729 182.83 40.7541C181.662 41.2853 180.523 41.8785 179.417 42.5312C179.083 42.7266 177.657 43.0287 177.358 43.1709C176.479 43.5139 175.621 43.9116 174.789 44.3616L174.174 44.7348C173.981 44.8439 173.761 44.8933 173.54 44.8769L172.872 44.7348C172.308 45.0369 170.408 45.8543 168.666 46.5119L166.907 46.7962C166.907 46.7962 166.801 46.7962 166.731 46.9028L165.675 47.3293C164.592 47.6912 163.534 48.1246 162.508 48.6266C161.98 48.9287 159.358 49.373 158.285 49.6928C157.212 50.0127 154.009 51.4699 153.182 51.8076C152.355 52.1452 148.977 52.9805 147.534 53.3181L146.461 53.8868L145.564 54.3666C144.645 54.4453 143.741 54.6424 142.872 54.9531C142.414 55.1485 140.004 55.6994 138.754 56.0015L137.716 56.3747C136.766 56.7124 135.763 56.2504 134.848 56.9079C134.268 57.3166 133.089 57.1922 132.244 57.3521C130.485 57.672 128.725 58.0274 126.965 58.3828H126.825C125.73 58.5636 124.625 58.6822 123.517 58.7383L122.004 58.8982C121.018 59.0048 120.068 59.1648 119.1 59.2892C118.133 59.4136 117.059 59.0048 116.197 59.6623C116.197 59.6623 115.845 59.6623 115.722 59.6623C114.966 60.0178 114.385 58.7916 113.417 59.5735L113.03 59.9111C111.917 59.7712 110.827 59.4782 109.793 59.0404L109.001 59.3958L108.279 59.7334C107.37 59.4425 106.418 59.3102 105.464 59.3425L104.743 58.916C104.203 58.7982 103.646 58.7982 103.106 58.916H102.561C102.421 58.7168 102.236 58.5536 102.022 58.4394C101.809 58.3252 101.571 58.2633 101.329 58.2585H100.907C100.59 58.2585 100.238 58.6494 99.9392 58.2585C99.6401 57.8675 98.6195 57.7431 97.863 57.6187C96.7461 57.3514 95.6472 57.0131 94.5726 56.6057L94.2911 56.5169C94.0272 56.5169 93.8512 56.2148 93.9392 56.0548C94.0272 55.8949 94.1855 55.4329 94.1327 55.4151C93.942 55.4124 93.7559 55.4751 93.6049 55.5928C93.3292 55.7218 93.029 55.7885 92.7251 55.7885C92.4213 55.7885 92.1211 55.7218 91.8454 55.5928L91.4935 55.2729L91.3175 55.0952C91.2295 54.8287 91.036 54.6687 90.8952 54.7398C90.7545 54.8109 90.3674 54.5976 90.2266 54.3311C90.0858 54.0645 89.5052 53.3004 89.4524 53.4603C89.3996 53.6202 89.1181 53.9757 88.9773 53.8157C88.542 53.502 88.069 53.2452 87.5697 53.0516L87.1474 52.9449C86.1093 52.6428 85.9158 52.4118 85.3879 51.1678V50.9368C85.3307 50.8733 85.2577 50.8265 85.1764 50.8012C85.0952 50.7759 85.0087 50.7731 84.9261 50.7931C84.8434 50.8131 84.7675 50.8551 84.7064 50.9147C84.6453 50.9744 84.6011 51.0495 84.5785 51.1323L84.1211 50.848L83.9627 50.7414C83.1939 50.7725 82.4318 50.8978 81.6929 51.1145L80.8131 51.4344L79.0536 52.0564C77.1005 52.7139 74.8659 53.4425 74.0742 53.6735C73.2824 53.9046 70.4144 54.7398 69.4642 54.9531C68.5141 55.1663 65.3821 55.8771 64.5727 56.1615C63.7633 56.4458 61.1592 56.7124 60.7897 56.8901H60.473H59.2942C58.0801 57.1389 56.1094 57.4943 54.9305 57.6898C53.7516 57.8853 50.0567 58.3473 49.4232 58.5606H48.8777H48.2795C47.6109 58.5606 46.8015 58.7916 46.52 58.8804C46.2385 58.9693 43.1769 59.3602 40.6608 59.7512L38.303 59.4313H37.6344C36.7641 59.526 35.9003 59.6744 35.0479 59.8756H34.3793C33.5875 59.8756 32.7957 59.8756 32.0039 59.8756H31.2825C30.173 59.847 29.0673 59.7341 27.9746 59.538L26.8837 59.8045L26.0391 60L23.1711 59.2892C22.2578 59.2629 21.347 59.1799 20.4438 59.0404L19.8984 59.6801C19.4007 59.7212 18.9005 59.7212 18.4028 59.6801C17.4038 59.3341 16.4231 58.9367 15.4644 58.4895L15.0245 58.3473L14.3559 58.134C14.3559 58.6139 14.004 58.9337 13.74 58.8627C13.4761 58.7916 12.35 58.2762 11.6462 57.9564L11.4351 57.5121L10.96 56.5702C10.257 57.1167 9.38214 57.3881 8.49665 57.3344L8.10955 56.588C8.04044 56.5073 7.95338 56.4443 7.85551 56.4041C7.75764 56.364 7.65175 56.3478 7.5465 56.3569C6.35003 56.6591 6.03331 55.6284 5.22393 55.344C5.04798 55.344 4.85442 54.9175 4.9248 54.8286C4.99518 54.7398 5.27671 54.4199 4.76645 54.3844C4.52632 54.4026 4.28517 54.4026 4.04504 54.3844C3.78111 54.2955 3.55237 54.0645 3.28844 54.0112C2.6902 54.0112 2.65502 53.5669 2.93654 53.3537L3.60516 52.8561C3.07331 52.6624 2.56078 52.4185 2.07438 52.1275C1.74007 51.932 0.473208 51.6477 0.314851 51.1501L0.0861041 50.7058C-0.19542 50.1549 0.279659 49.7462 0.561184 49.3197C1.27395 49.6647 1.84608 50.2488 2.17994 50.9724L2.61983 51.6832L2.49666 51.5233ZM88.7134 35.9737C88.3263 35.7426 88.2735 35.5116 88.5902 35.4583C89.3911 35.3061 90.175 35.0739 90.9304 34.7653L91.036 34.2144C91.1767 33.4502 92.0917 33.468 92.5668 33.0237C93.079 32.6392 93.627 32.3059 94.2031 32.0285C94.7246 31.6891 95.2651 31.3806 95.8219 31.1045C96.8798 30.7719 97.7651 30.0311 98.2852 29.043C98.4612 28.6343 98.4964 28.3144 99.1474 28.4033C99.7984 28.4921 99.7984 28.2611 99.8336 27.8701C99.8336 27.7457 100.432 27.728 100.555 27.568C100.678 27.4081 100.432 26.9283 100.555 26.9105L101.628 26.5906C102.227 25.7909 102.93 24.8135 103.194 24.6003C104.327 23.7579 105.501 22.9749 106.713 22.2545L107.593 21.1883L108.262 20.3886C109.353 19.7666 110.162 19.038 110.021 18.7714L110.127 18.6826L110.303 18.5404C110.87 18.2289 111.348 17.7763 111.693 17.2253C112.133 16.6034 113.452 14.5064 113.646 14.0443C114.052 13.1406 114.353 12.1925 114.543 11.2188C114.543 10.5968 112.661 9.44167 112.414 9.44167C111.929 9.27774 111.404 9.27774 110.919 9.44167C110.549 9.61938 108.825 9.92148 107.857 10.188C106.189 10.6302 104.545 11.158 102.93 11.7697C102.156 12.1428 99.1474 14.0088 97.8453 14.9329L96.2794 15.2883C96.1914 15.2883 96.1914 15.5193 96.0858 15.5904C95.6283 15.9636 94.7838 16.2657 94.731 16.6567C94.6078 17.5452 93.5169 17.0654 93.2178 17.563C93.2178 17.563 92.8659 17.563 92.8483 17.7051C92.4612 18.7714 91.1768 19.2157 90.4905 20.0509C89.8043 20.8862 89.2765 21.828 88.5023 22.681C87.8173 23.389 87.2259 24.1834 86.7427 25.0446C86.3205 25.8087 85.687 26.4662 85.2823 27.2659L84.9128 27.9945C84.4218 28.5296 84.0019 29.127 83.6636 29.7716L83.7691 29.8783C84.4378 30.4469 84.297 30.7135 83.382 30.8734C83.2413 30.8734 83.1709 31.4421 83.2061 31.7442V31.9752C83.2571 32.519 83.2571 33.0664 83.2061 33.6102L82.6958 34.2321L82.3087 34.6764C82.3166 35.3939 82.2096 36.1081 81.992 36.7911C81.8161 37.0933 82.6958 37.964 82.7134 38.2839C82.731 38.6038 84.5609 37.8396 85.5639 37.1466L86.6724 36.7734C87.1474 36.6134 87.6577 36.5068 88.1152 36.3291L88.7134 35.9737ZM307.44 30.8201C308.197 30.6069 308.496 30.3403 308.073 30.2337C307.651 30.127 306.525 29.7005 306.314 29.8249C306.103 29.9493 305.082 30.1093 304.818 30.2692C304.554 30.4292 303.305 30.0915 302.689 30.1804C302.073 30.2692 300.12 30.8023 299.452 30.8201C298.783 30.8379 297.288 31.8153 296.883 31.7087H296.513C296.267 31.7087 296.091 32.1174 295.827 32.2062C295.563 32.2951 295.317 31.9575 295.176 32.0285L294.595 32.2951C294.063 32.6438 293.463 32.874 292.836 32.9704C291.658 33.3184 290.51 33.7642 289.405 34.3032L288.42 34.552L287.469 34.8008C287.082 35.3162 286.502 35.5827 286.185 35.405H285.974L285.481 35.5294C285.006 35.796 284.038 36.3824 283.335 36.8445C282.631 37.3065 280.097 38.4261 279.64 38.7104L279.164 38.8881L278.725 39.0836C278.515 39.3334 278.286 39.5652 278.038 39.7767C278.038 39.8833 277.915 40.061 278.038 40.1321L278.144 40.2565C278.505 40.3721 278.876 40.4495 279.252 40.4875C280.1 40.5936 280.957 40.5936 281.804 40.4875L282.296 40.3631L282.895 40.2209C283.784 40.1324 284.68 40.1324 285.569 40.2209L286.343 40.061L286.924 39.9366C287.277 40.3441 287.743 40.635 288.261 40.7719L288.42 40.6652L289.176 40.0788L291.745 39.9188L292.326 39.8122C292.977 39.6878 293.681 39.2969 293.821 40.2743C293.821 40.2743 294.472 40.3987 294.56 40.2743L295.018 39.83C295.423 39.2969 295.88 38.9414 296.056 39.0658C296.232 39.1902 296.478 39.5101 296.302 39.5812C296.126 39.6523 296.038 39.7589 296.865 39.5812C297.692 39.4035 299.346 38.2484 299.399 38.5682C299.452 38.8881 299.944 39.3502 300.332 39.0125C300.887 38.479 301.475 37.9805 302.091 37.5198C302.373 37.3954 303.252 37.1288 303.182 36.9511C303.112 36.7734 304.22 35.9026 304.836 35.4583L305.117 34.8541C305.276 34.5165 305.452 34.0189 305.751 33.93C306.384 33.7701 306.472 33.5391 306.578 33.0415C306.683 32.5439 307.387 32.0819 307.44 31.602V30.8201Z" fill="#E7CEC0"/>
</svg>
