<svg width="28" height="28" viewBox="0 0 28 28" fill="none" xmlns="http://www.w3.org/2000/svg">
<path d="M22.6265 20.4398L23.1465 24.6532C23.2798 25.7598 22.0932 26.5332 21.1465 25.9598L16.5332 23.2132C16.2132 23.0265 16.1332 22.6265 16.3065 22.3065C16.9732 21.0798 17.3332 19.6932 17.3332 18.3065C17.3332 13.4265 13.1465 9.45317 7.99984 9.45317C6.9465 9.45317 5.91984 9.61317 4.95984 9.93317C4.4665 10.0932 3.9865 9.63984 4.1065 9.13317C5.31984 4.27984 9.9865 0.666504 15.5598 0.666504C22.0665 0.666504 27.3332 5.5865 27.3332 11.6532C27.3332 15.2532 25.4798 18.4398 22.6265 20.4398Z" fill="white"/>
<path d="M15.3332 18.3065C15.3332 19.8932 14.7465 21.3598 13.7598 22.5198C12.4398 24.1198 10.3465 25.1465 7.99984 25.1465L4.51984 27.2132C3.93317 27.5732 3.1865 27.0798 3.2665 26.3998L3.59984 23.7732C1.81317 22.5332 0.666504 20.5465 0.666504 18.3065C0.666504 15.9598 1.91984 13.8932 3.83984 12.6665C5.0265 11.8932 6.45317 11.4532 7.99984 11.4532C12.0532 11.4532 15.3332 14.5198 15.3332 18.3065Z" fill="white"/>
</svg>
