<svg width="28" height="22" viewBox="0 0 28 22" fill="none" xmlns="http://www.w3.org/2000/svg">
<path d="M3.33317 0.333496C2.62593 0.333496 1.94765 0.614448 1.44755 1.11454C0.947455 1.61464 0.666504 2.29292 0.666504 3.00016V8.3335C1.37375 8.3335 2.05203 8.61445 2.55212 9.11454C3.05222 9.61464 3.33317 10.2929 3.33317 11.0002C3.33317 11.7074 3.05222 12.3857 2.55212 12.8858C2.05203 13.3859 1.37375 13.6668 0.666504 13.6668V19.0002C0.666504 19.7074 0.947455 20.3857 1.44755 20.8858C1.94765 21.3859 2.62593 21.6668 3.33317 21.6668H24.6665C25.3737 21.6668 26.052 21.3859 26.5521 20.8858C27.0522 20.3857 27.3332 19.7074 27.3332 19.0002V13.6668C26.6259 13.6668 25.9477 13.3859 25.4476 12.8858C24.9475 12.3857 24.6665 11.7074 24.6665 11.0002C24.6665 10.2929 24.9475 9.61464 25.4476 9.11454C25.9477 8.61445 26.6259 8.3335 27.3332 8.3335V3.00016C27.3332 2.29292 27.0522 1.61464 26.5521 1.11454C26.052 0.614448 25.3737 0.333496 24.6665 0.333496H3.33317ZM18.6665 4.3335L20.6665 6.3335L9.33317 17.6668L7.33317 15.6668L18.6665 4.3335ZM9.7465 4.38683C11.0532 4.38683 12.1065 5.44016 12.1065 6.74683C12.1065 7.37274 11.8579 7.97301 11.4153 8.4156C10.9727 8.85819 10.3724 9.10683 9.7465 9.10683C8.43984 9.10683 7.3865 8.0535 7.3865 6.74683C7.3865 6.12092 7.63515 5.52064 8.07773 5.07806C8.52032 4.63547 9.12059 4.38683 9.7465 4.38683ZM18.2532 12.8935C19.5598 12.8935 20.6132 13.9468 20.6132 15.2535C20.6132 15.8794 20.3645 16.4797 19.9219 16.9223C19.4794 17.3649 18.8791 17.6135 18.2532 17.6135C16.9465 17.6135 15.8932 16.5602 15.8932 15.2535C15.8932 14.6276 16.1418 14.0273 16.5844 13.5847C17.027 13.1421 17.6273 12.8935 18.2532 12.8935Z" fill="white"/>
</svg>
