<svg width="56" height="56" viewBox="0 0 56 56" fill="none" xmlns="http://www.w3.org/2000/svg">
<path d="M50.5 18C51.8261 18 53.0979 18.5268 54.0355 19.4645C54.9732 20.4021 55.5 21.6739 55.5 23V33C55.5 34.3261 54.9732 35.5978 54.0355 36.5355C53.0979 37.4732 51.8261 38 50.5 38H47.845C47.2355 42.8332 44.8832 47.2779 41.2294 50.5C37.5756 53.722 32.8715 55.4999 28 55.5V50.5C31.9782 50.5 35.7936 48.9197 38.6066 46.1066C41.4196 43.2936 43 39.4782 43 35.5V20.5C43 16.5217 41.4196 12.7064 38.6066 9.89339C35.7936 7.08035 31.9782 5.5 28 5.5C24.0218 5.5 20.2064 7.08035 17.3934 9.89339C14.5804 12.7064 13 16.5217 13 20.5V38H5.5C4.17392 38 2.90215 37.4732 1.96447 36.5355C1.02678 35.5978 0.5 34.3261 0.5 33V23C0.5 21.6739 1.02678 20.4021 1.96447 19.4645C2.90215 18.5268 4.17392 18 5.5 18H8.155C8.76508 13.1672 11.1177 8.72318 14.7714 5.50168C18.4252 2.28019 23.1289 0.502686 28 0.502686C32.8711 0.502686 37.5748 2.28019 41.2286 5.50168C44.8823 8.72318 47.2349 13.1672 47.845 18H50.5ZM17.4 37.4625L20.05 33.2225C22.4327 34.7151 25.1884 35.5045 28 35.5C30.8116 35.5045 33.5673 34.7151 35.95 33.2225L38.6 37.4625C35.4231 39.4529 31.7489 40.5058 28 40.5C24.2511 40.5059 20.5768 39.453 17.4 37.4625Z" fill="#999999"/>
</svg>
