<svg width="50" height="50" viewBox="0 0 50 50" fill="none" xmlns="http://www.w3.org/2000/svg">
<path fill-rule="evenodd" clip-rule="evenodd" d="M25 50C38.8075 50 50 38.8075 50 25C50 11.1925 38.8075 0 25 0C11.1925 0 0 11.1925 0 25C0 38.8075 11.1925 50 25 50ZM15.9925 33.8825C16.1393 33.6846 16.3237 33.5175 16.5351 33.3909C16.7466 33.2643 16.9809 33.1806 17.2247 33.1446C17.4685 33.1086 17.717 33.121 17.956 33.1811C18.195 33.2413 18.4198 33.3479 18.6175 33.495C20.4375 34.845 22.635 35.625 25 35.625C27.365 35.625 29.5625 34.8425 31.3825 33.495C31.5796 33.3416 31.8054 33.2291 32.0466 33.1642C32.2879 33.0993 32.5396 33.0832 32.7871 33.1169C33.0346 33.1506 33.2729 33.2335 33.4879 33.3606C33.703 33.4876 33.8905 33.6564 34.0394 33.857C34.1883 34.0575 34.2956 34.2858 34.3551 34.5284C34.4146 34.771 34.425 35.0231 34.3857 35.2698C34.3463 35.5164 34.2582 35.7528 34.1262 35.9649C33.9943 36.177 33.8214 36.3607 33.6175 36.505C31.1293 38.3653 28.1067 39.372 25 39.375C21.8933 39.372 18.8707 38.3653 16.3825 36.505C15.9831 36.2089 15.7176 35.7663 15.6445 35.2745C15.5713 34.7827 15.6965 34.282 15.9925 33.8825ZM35 21.25C35 23.32 33.88 25 32.5 25C31.12 25 30 23.32 30 21.25C30 19.18 31.12 17.5 32.5 17.5C33.88 17.5 35 19.18 35 21.25ZM17.5 25C18.88 25 20 23.32 20 21.25C20 19.18 18.88 17.5 17.5 17.5C16.12 17.5 15 19.18 15 21.25C15 23.32 16.12 25 17.5 25Z" fill="#999999"/>
</svg>
