<svg width="44" height="43" viewBox="0 0 44 43" fill="none" xmlns="http://www.w3.org/2000/svg">
<path d="M21.125 43C19.75 43 18.3642 42.8433 16.9675 42.53C15.5708 42.2167 14.1442 41.7692 12.6875 41.1875C13.1875 36.1458 14.6458 31.4375 17.0625 27.0625C19.4792 22.6875 22.5833 18.8333 26.375 15.5C21.7917 17.8333 17.8225 20.9167 14.4675 24.75C11.1125 28.5833 8.76917 32.9583 7.4375 37.875C7.27084 37.75 7.11417 37.615 6.9675 37.47L6.5 37C4.54167 35.0417 3.05167 32.8542 2.03 30.4375C1.00834 28.0208 0.498337 25.5 0.500004 22.875C0.500004 20.0417 1.0625 17.3333 2.1875 14.75C3.3125 12.1667 4.875 9.87501 6.875 7.87501C10.25 4.50001 14.625 2.30251 20 1.28251C25.375 0.262506 32.9167 0.168338 42.625 1.00001C43.375 10.9583 43.25 18.5525 42.25 23.7825C41.25 29.0125 39.0833 33.2933 35.75 36.625C33.7083 38.6667 31.4267 40.24 28.905 41.345C26.3833 42.45 23.79 43.0017 21.125 43Z" fill="#999999"/>
</svg>
