<svg width="56" height="40" viewBox="0 0 56 40" fill="none" xmlns="http://www.w3.org/2000/svg">
<path d="M13 40C10.9167 40 9.14584 39.2708 7.6875 37.8125C6.22917 36.3542 5.5 34.5833 5.5 32.5C4.125 32.5 2.9475 32.01 1.9675 31.03C0.987504 30.05 0.498338 28.8733 0.500004 27.5V5C0.500004 3.625 0.990004 2.4475 1.97 1.4675C2.95 0.487504 4.12667 -0.00166242 5.5 4.24448e-06H35.5C36.875 4.24448e-06 38.0525 0.490004 39.0325 1.47C40.0125 2.45 40.5017 3.62667 40.5 5V10H46.75C47.1667 10 47.5417 10.0833 47.875 10.25C48.2083 10.4167 48.5 10.6667 48.75 11L55 19.3125C55.1667 19.5208 55.2917 19.75 55.375 20C55.4583 20.25 55.5 20.5208 55.5 20.8125V30C55.5 30.7083 55.26 31.3025 54.78 31.7825C54.3 32.2625 53.7067 32.5017 53 32.5H50.5C50.5 34.5833 49.7708 36.3542 48.3125 37.8125C46.8542 39.2708 45.0833 40 43 40C40.9167 40 39.1458 39.2708 37.6875 37.8125C36.2292 36.3542 35.5 34.5833 35.5 32.5H20.5C20.5 34.5833 19.7708 36.3542 18.3125 37.8125C16.8542 39.2708 15.0833 40 13 40ZM13 35C13.7083 35 14.3025 34.76 14.7825 34.28C15.2625 33.8 15.5017 33.2067 15.5 32.5C15.5 31.7917 15.26 31.1975 14.78 30.7175C14.3 30.2375 13.7067 29.9983 13 30C12.2917 30 11.6975 30.24 11.2175 30.72C10.7375 31.2 10.4983 31.7933 10.5 32.5C10.5 33.2083 10.74 33.8025 11.22 34.2825C11.7 34.7625 12.2933 35.0017 13 35ZM43 35C43.7083 35 44.3025 34.76 44.7825 34.28C45.2625 33.8 45.5017 33.2067 45.5 32.5C45.5 31.7917 45.26 31.1975 44.78 30.7175C44.3 30.2375 43.7067 29.9983 43 30C42.2917 30 41.6975 30.24 41.2175 30.72C40.7375 31.2 40.4983 31.7933 40.5 32.5C40.5 33.2083 40.74 33.8025 41.22 34.2825C41.7 34.7625 42.2933 35.0017 43 35ZM40.5 22.5H51.125L45.5 15H40.5V22.5Z" fill="#999999"/>
</svg>
